<?xml version="1.0"?>
<svg width="1378.37" height="572.5" xmlns="http://www.w3.org/2000/svg" xmlns:svg="http://www.w3.org/2000/svg" data-name="圖層 2">
 <defs>
  <style>.cls-1{fill:none;}.cls-1,.cls-2{stroke:#ffe0c9;stroke-miterlimit:10;stroke-width:8px;}.cls-2,.cls-4{fill:#ffe0c9;}.cls-3{fill:#525252;}</style>
 </defs>
 <g class="layer">
  <title>Layer 1</title>
  <circle class="cls-1" cx="453.31" cy="440.13" id="svg_2"/>
  <path class="cls-3" d="m1362.84,650.26l-65,-13.8l0,-20.89l41.76,-8.26l0,-0.31c-7.6,-1 -17.36,-2.94 -27.46,-5.09l-14.3,-3l0,-15.91l65,13.8l0,20.2l-44.36,8.48l0,0.2c8.17,1.13 18.57,3.32 29.83,5.72l14.53,3.09l0,15.77z" id="svg_11" transform="translate(14.31 -116.87)"/>
  <path class="cls-3" d="m1342.86,517.31c11.78,3.59 21.2,12.17 21.2,30.19c0,17.48 -10.63,25 -26.08,25c-17.14,0 -41.34,-9.52 -41.34,-34.73c0,-18.85 11.92,-24.57 22.46,-24.09l0,17c-4.57,0.08 -9.71,0.95 -9.71,8.28c0,10.74 17.66,15.37 29,15.37c8.29,0 12.94,-2.65 12.94,-8.78c0,-6.37 -3.66,-8.84 -8.45,-10.79l-0.02,-17.45z" id="svg_12" transform="translate(14.31 -116.87)"/>
  <path class="cls-3" d="m1297.8,491.55l0,-17.09l26.53,5.75l-26.53,-23.6l0,-20.61l26.85,26.83l38.19,-14.09l0,18.26l-27.31,9.31l7,7.65l20.34,4.26l0,17.15l-65.07,-13.82z" id="svg_13" transform="translate(14.31 -116.87)"/>
  <path class="cls-3" d="m1297.8,407.8l42.27,9c5.75,1.23 11.24,0.47 11.24,-7.16c0,-7 -5.09,-9.14 -11.24,-10.43l-42.27,-9l0,-17.56l41.74,8.87c14.32,3.08 24.52,9 24.52,29.61c0,20.31 -10.23,26.15 -25.53,22.88l-40.73,-8.64l0,-17.57z" id="svg_14" transform="translate(14.31 -116.87)"/>
  <path class="cls-3" d="m1297.8,353.45l0,-43.45l13.09,2.8l0,26.39l12.79,2.7l0,-24.79l13,2.84l0,24.74l26.12,5.46l0,17.12l-65,-13.81z" id="svg_15" transform="translate(14.31 -116.87)"/>
  <path class="cls-3" d="m1336,258.27l0,26.09l13.79,2.92l0,-30.78l13,4.46l0,45.88l-65,-13.81l0,-44l13.13,2.8l0,27.17l12,2.58l0,-26.1l13.08,2.79z" id="svg_16" transform="translate(14.31 -116.87)"/>
  <path class="cls-3" d="m1336,195.19l0,26.09l13.79,2.92l0,-30.78l13,4.46l0,45.88l-65,-13.81l0,-43.95l13.13,2.8l0,27.14l12,2.58l0,-26.1l13.08,2.77z" id="svg_17" transform="translate(14.31 -116.87)"/>
  <path class="cls-3" d="m1297.8,166.87l0,-22.87c0,-18.15 12,-27.09 26.84,-27.09c19.88,0 38.2,11.13 38.2,35.22l0,28.59l-65.04,-13.85zm52.58,-6.34l0,-7.88c0,-12.71 -15.66,-17.49 -26.46,-17.49c-9.65,0 -13.54,4.77 -13.54,11.36l0,5.48l40,8.53z" id="svg_18" transform="translate(14.31 -116.87)"/>
  <path class="cls-4" d="m1360.84,657.05l-65,-13.81l0,-20.88l41.76,-8.26l0,-0.33c-7.6,-0.95 -17.36,-2.94 -27.46,-5.09l-14.3,-3l0,-15.85l65,13.8l0,20.13l-44.36,8.48l0,0.2c8.17,1.13 18.57,3.32 29.82,5.72l14.54,3.09l0,15.8z" id="svg_19" transform="translate(14.31 -116.87)"/>
  <path class="cls-4" d="m1340.86,524.1c11.78,3.59 21.2,12.17 21.2,30.19c0,17.48 -10.63,25 -26.08,25c-17.14,0 -41.34,-9.53 -41.34,-34.73c0,-18.85 11.92,-24.57 22.46,-24.09l0,17c-4.57,0.08 -9.71,0.95 -9.71,8.28c0,10.74 17.66,15.37 29,15.37c8.29,0 12.94,-2.65 12.94,-8.78c0,-6.37 -3.66,-8.84 -8.45,-10.79l-0.02,-17.45z" id="svg_20" transform="translate(14.31 -116.87)"/>
  <path class="cls-4" d="m1295.8,498.34l0,-17.09l26.53,5.75c-7.2,-6.41 -19.07,-17 -26.53,-23.61l0,-20.57l26.85,26.84l38.19,-14.09l0,18.21l-27.31,9.31l7,7.65l20.34,4.26l0,17.15l-65.07,-13.81z" id="svg_21" transform="translate(14.31 -116.87)"/>
  <path class="cls-4" d="m1295.8,414.59l42.27,9c5.75,1.23 11.24,0.47 11.24,-7.16c0,-7 -5.09,-9.14 -11.24,-10.43l-42.27,-9l0,-17.56l41.74,8.87c14.32,3.08 24.52,9 24.52,29.61c0,20.31 -10.23,26.15 -25.53,22.88l-40.73,-8.64l0,-17.57z" id="svg_22" transform="translate(14.31 -116.87)"/>
  <path class="cls-4" d="m1295.8,360.24l0,-43.5l13.09,2.8l0,26.39l12.79,2.7l0,-24.74l13,2.84l0,24.74l26.12,5.46l0,17.12l-65,-13.81z" id="svg_23" transform="translate(14.31 -116.87)"/>
  <path class="cls-4" d="m1334,265.06l0,26.09l13.79,2.92l0,-30.78l13,4.46l0,45.88l-65,-13.81l0,-44l13.13,2.8l0,27.18l12,2.58l0,-26.1l13.08,2.78z" id="svg_24" transform="translate(14.31 -116.87)"/>
  <path class="cls-4" d="m1334,202l0,26.09l13.79,2.91l0,-30.79l13,4.45l0,45.89l-65,-13.81l0,-44l13.13,2.8l0,27.14l12,2.57l0,-26.05l13.08,2.8z" id="svg_25" transform="translate(14.31 -116.87)"/>
  <path class="cls-4" d="m1295.8,173.66l0,-22.91c0,-18.15 12,-27.09 26.84,-27.09c19.88,0 38.2,11.13 38.2,35.22l0,28.59l-65.04,-13.81zm52.58,-6.34l0,-7.89c0,-12.7 -15.66,-17.48 -26.46,-17.48c-9.65,0 -13.54,4.76 -13.54,11.36l0,5.49l40,8.52z" id="svg_26" transform="translate(14.31 -116.87)"/>
 </g>
</svg>