<svg id="圖層_2" data-name="圖層 2" xmlns="http://www.w3.org/2000/svg" viewBox="0 0 1378.37 572.5"><defs><style>.cls-1{fill:none;}.cls-1,.cls-2{stroke:#ffe0c9;stroke-miterlimit:10;stroke-width:8px;}.cls-2,.cls-4{fill:#ffe0c9;}.cls-3{fill:#525252;}</style></defs><circle class="cls-1" cx="123.31" cy="318.13" r="32"/><circle class="cls-1" cx="453.31" cy="440.13" r="32"/><circle class="cls-1" cx="99.31" cy="504.13" r="32"/><line class="cls-1" x1="102.31" y1="294.13" x2="3.31" y2="148.13"/><line class="cls-1" x1="122.81" y1="350.63" x2="98.81" y2="471.63"/><line class="cls-1" x1="131.31" y1="504.13" x2="422.31" y2="447.13"/><line class="cls-1" x1="485.31" y1="440.13" x2="687.31" y2="569.13"/><circle class="cls-2" cx="123.31" cy="318.13" r="17"/><circle class="cls-2" cx="453.31" cy="440.13" r="17"/><circle class="cls-2" cx="99.31" cy="505.13" r="17"/><path class="cls-3" d="M1362.84,650.26l-65-13.8V615.57l41.76-8.26V607c-7.6-1-17.36-2.94-27.46-5.09l-14.3-3V583l65,13.8V617l-44.36,8.48v.2c8.17,1.13,18.57,3.32,29.83,5.72l14.53,3.09Z" transform="translate(14.31 -116.87)"/><path class="cls-3" d="M1342.86,517.31c11.78,3.59,21.2,12.17,21.2,30.19,0,17.48-10.63,25-26.08,25-17.14,0-41.34-9.52-41.34-34.73,0-18.85,11.92-24.57,22.46-24.09v17c-4.57.08-9.71.95-9.71,8.28,0,10.74,17.66,15.37,29,15.37,8.29,0,12.94-2.65,12.94-8.78,0-6.37-3.66-8.84-8.45-10.79Z" transform="translate(14.31 -116.87)"/><path class="cls-3" d="M1297.8,491.55V474.46l26.53,5.75-26.53-23.6V436l26.85,26.83,38.19-14.09V467l-27.31,9.31,7,7.65,20.34,4.26v17.15Z" transform="translate(14.31 -116.87)"/><path class="cls-3" d="M1297.8,407.8l42.27,9c5.75,1.23,11.24.47,11.24-7.16,0-7-5.09-9.14-11.24-10.43l-42.27-9V372.65l41.74,8.87c14.32,3.08,24.52,9,24.52,29.61,0,20.31-10.23,26.15-25.53,22.88l-40.73-8.64Z" transform="translate(14.31 -116.87)"/><path class="cls-3" d="M1297.8,353.45V310l13.09,2.8v26.39l12.79,2.7V317.1l13,2.84v24.74l26.12,5.46v17.12Z" transform="translate(14.31 -116.87)"/><path class="cls-3" d="M1336,258.27v26.09l13.79,2.92V256.5l13,4.46v45.88l-65-13.81v-44l13.13,2.8V279l12,2.58v-26.1Z" transform="translate(14.31 -116.87)"/><path class="cls-3" d="M1336,195.19v26.09l13.79,2.92V193.42l13,4.46v45.88l-65-13.81V186l13.13,2.8v27.14l12,2.58v-26.1Z" transform="translate(14.31 -116.87)"/><path class="cls-3" d="M1297.8,166.87V144c0-18.15,12-27.09,26.84-27.09,19.88,0,38.2,11.13,38.2,35.22v28.59Zm52.58-6.34v-7.88c0-12.71-15.66-17.49-26.46-17.49-9.65,0-13.54,4.77-13.54,11.36V152Z" transform="translate(14.31 -116.87)"/><path class="cls-4" d="M1360.84,657.05l-65-13.81V622.36l41.76-8.26v-.33c-7.6-.95-17.36-2.94-27.46-5.09l-14.3-3V589.83l65,13.8v20.13l-44.36,8.48v.2c8.17,1.13,18.57,3.32,29.82,5.72l14.54,3.09Z" transform="translate(14.31 -116.87)"/><path class="cls-4" d="M1340.86,524.1c11.78,3.59,21.2,12.17,21.2,30.19,0,17.48-10.63,25-26.08,25-17.14,0-41.34-9.53-41.34-34.73,0-18.85,11.92-24.57,22.46-24.09v17c-4.57.08-9.71.95-9.71,8.28,0,10.74,17.66,15.37,29,15.37,8.29,0,12.94-2.65,12.94-8.78,0-6.37-3.66-8.84-8.45-10.79Z" transform="translate(14.31 -116.87)"/><path class="cls-4" d="M1295.8,498.34V481.25l26.53,5.75c-7.2-6.41-19.07-17-26.53-23.61V442.82l26.85,26.84,38.19-14.09v18.21l-27.31,9.31,7,7.65,20.34,4.26v17.15Z" transform="translate(14.31 -116.87)"/><path class="cls-4" d="M1295.8,414.59l42.27,9c5.75,1.23,11.24.47,11.24-7.16,0-7-5.09-9.14-11.24-10.43l-42.27-9V379.44l41.74,8.87c14.32,3.08,24.52,9,24.52,29.61,0,20.31-10.23,26.15-25.53,22.88l-40.73-8.64Z" transform="translate(14.31 -116.87)"/><path class="cls-4" d="M1295.8,360.24v-43.5l13.09,2.8v26.39l12.79,2.7V323.89l13,2.84v24.74l26.12,5.46v17.12Z" transform="translate(14.31 -116.87)"/><path class="cls-4" d="M1334,265.06v26.09l13.79,2.92V263.29l13,4.46v45.88l-65-13.81v-44l13.13,2.8V285.8l12,2.58v-26.1Z" transform="translate(14.31 -116.87)"/><path class="cls-4" d="M1334,202v26.09l13.79,2.91V200.21l13,4.45v45.89l-65-13.81v-44l13.13,2.8v27.14l12,2.57V199.2Z" transform="translate(14.31 -116.87)"/><path class="cls-4" d="M1295.8,173.66V150.75c0-18.15,12-27.09,26.84-27.09,19.88,0,38.2,11.13,38.2,35.22v28.59Zm52.58-6.34v-7.89c0-12.7-15.66-17.48-26.46-17.48-9.65,0-13.54,4.76-13.54,11.36v5.49Z" transform="translate(14.31 -116.87)"/></svg>