<svg xmlns="http://www.w3.org/2000/svg" viewBox="0 0 590.09 502.19"><defs><style>.cls-1{fill:#fff;}.cls-10,.cls-2,.cls-3,.cls-4,.cls-5,.cls-6,.cls-7,.cls-8,.cls-9{fill:none;stroke-miterlimit:10;}.cls-2,.cls-3,.cls-4,.cls-5,.cls-7,.cls-8,.cls-9{stroke:#f08940;}.cls-2{stroke-width:8px;}.cls-10,.cls-3,.cls-9{stroke-width:12px;}.cls-4{stroke-width:7px;}.cls-5{stroke-width:20px;}.cls-10,.cls-6{stroke:#fff;}.cls-6{stroke-width:19px;}.cls-7{stroke-width:10px;}.cls-8{stroke-width:18px;}.cls-9{stroke-linecap:square;}</style></defs><g id="圖層_5" data-name="圖層 5"><polygon class="cls-1" points="40.29 43.86 227.36 12.46 409.29 102.46 576.75 17.92 576.75 413.79 407.81 490.58 224.41 404.16 40.65 435.04 40.29 43.86"/><circle class="cls-1" cx="49.6" cy="235.81" r="45.6"/><circle class="cls-1" cx="499.17" cy="72.36" r="47.15"/></g><g id="orange_map" data-name="orange map"><circle class="cls-2" cx="500.73" cy="72.36" r="23.29"/><circle class="cls-2" cx="500.73" cy="72.36" r="45.6"/><circle class="cls-2" cx="319.56" cy="364.09" r="23.29"/><circle class="cls-2" cx="319.56" cy="364.09" r="45.6"/><circle class="cls-2" cx="49.6" cy="235.81" r="23.29"/><circle class="cls-2" cx="49.6" cy="235.81" r="45.6"/><line class="cls-3" x1="412.84" y1="95.66" x2="455.13" y2="75.64"/><polyline class="cls-3" points="418.37 496.79 226.93 402.98 226.93 4.43"/><path class="cls-4" d="M232.53,471.06" transform="translate(-5.6 -69.57)"/><line class="cls-5" x1="49.6" y1="31.78" x2="49.6" y2="190.22"/><path class="cls-6" d="M55.22,504.78" transform="translate(-5.6 -69.57)"/><path class="cls-6" d="M55.22,350.82" transform="translate(-5.6 -69.57)"/><path class="cls-4" d="M409.48,556.43" transform="translate(-5.6 -69.57)"/><polyline class="cls-3" points="531.18 39.38 584.09 11.46 584.09 412.74 410.65 496.79"/><polyline class="cls-3" points="226.93 402.98 40.02 435.2 40.02 280.68"/><line class="cls-5" x1="49.62" y1="281.25" x2="49.62" y2="435.2"/><line class="cls-7" x1="511.46" y1="113.62" x2="511.46" y2="292.95"/><line class="cls-7" x1="486.8" y1="114.19" x2="486.8" y2="293.52"/><path class="cls-5" d="M508.21,276.83" transform="translate(-5.6 -69.57)"/><polyline class="cls-3" points="40.29 190.22 40.29 37.75 229.92 5.92"/><line class="cls-8" x1="51.75" y1="37.08" x2="154.83" y2="422.78"/><path class="cls-2" d="M483,184.68" transform="translate(-5.6 -69.57)"/><polyline class="cls-2" points="346.97 333.03 413.72 259.11 489.36 115.11"/><polyline class="cls-2" points="275.34 349.11 226.93 313.94 91.36 254.13"/><line class="cls-8" x1="83.76" y1="184.77" x2="226.93" y2="158.74"/><polyline class="cls-9" points="232.99 8.64 414.33 97.15 412.84 490.58"/><path class="cls-10" d="M96.47,253.05" transform="translate(-5.6 -69.57)"/><path class="cls-8" d="M96.47,238.9c-.74-14.68-7.11-58.33,25-102.91C149,97.73,202,84.13,224.74,84.13" transform="translate(-5.6 -69.57)"/><line class="cls-4" x1="332.29" y1="255.8" x2="332.29" y2="321.47"/><line class="cls-4" x1="304.73" y1="255.5" x2="304.73" y2="318.2"/><line class="cls-4" x1="333.62" y1="405.12" x2="333.62" y2="455.88"/><line class="cls-4" x1="306.78" y1="408.1" x2="306.78" y2="443.95"/><path class="cls-4" d="M312.12,328.83c-7.48-6.06-25-14.5-32.33-37.65-5.19-16.44-4.7-40-1.75-57.68.09-.5,1.4-17.31,6.49-17.61,3.26-.19,4,22.45,13.34,43.87,1.18,2.7,3.54,6,6.52,7.41,4.44,2.08,8.91-4.35,9.48-8.89.78-6.21.37-20.58.89-28.16.46-6.6,1.45-22.53,6.23-22.53,5.32,0,6.45,14.88,8.89,29.35,1.23,7.27,1.2,13.75,3.56,23.12,1.07,4.26,3,5.86,5.33,5.93,4.48.12,8.68-11.52,11.27-21.94,1.65-6.65,2.55-20.71,2.67-23.12a7.34,7.34,0,0,1,4.74-6.52c2,0,3.79,3.47,5.33,8,6.2,18.18,5.34,39.08,5.35,46,0,19.83-3.88,28.64-6.83,35-6.2,13.34-18.49,21.51-24.91,26.14" transform="translate(-5.6 -69.57)"/><path class="cls-7" d="M494.33,358.81c-3.24,2.28-33.42,14.11-33.42,59.18,0,34.39,19.4,58.24,44.26,58.7S548.63,457,548.63,416.1c0-44.59-31.69-56-33.7-57.25" transform="translate(-5.6 -69.57)"/></g></svg>