<?xml version="1.0" encoding="utf-8"?>
<!-- Generator: Adobe Illustrator 26.0.0, SVG Export Plug-In . SVG Version: 6.00 Build 0)  -->
<svg version="1.1" xmlns="http://www.w3.org/2000/svg" xmlns:xlink="http://www.w3.org/1999/xlink" x="0px" y="0px"
	 viewBox="0 0 600 600" style="enable-background:new 0 0 600 600;" xml:space="preserve">
<style type="text/css">
	.st0{display:none;}
	.st1{display:inline;fill:#F08940;}
	.st2{fill:none;stroke:#FFFFFF;stroke-width:8;stroke-miterlimit:10;}
	.st3{fill:none;stroke:#FFFFFF;stroke-width:12;stroke-miterlimit:10;}
	.st4{fill:none;stroke:#FFFFFF;stroke-width:7;stroke-miterlimit:10;}
	.st5{fill:none;stroke:#FFFFFF;stroke-width:20;stroke-miterlimit:10;}
	.st6{fill:none;stroke:#FFFFFF;stroke-width:19;stroke-miterlimit:10;}
	.st7{fill:none;stroke:#FFFFFF;stroke-width:18;stroke-miterlimit:10;}
	.st8{display:inline;fill:none;stroke:#F08940;stroke-width:8;stroke-miterlimit:10;}
	.st9{display:inline;fill:none;stroke:#F08940;stroke-width:12;stroke-miterlimit:10;}
	.st10{display:inline;fill:none;stroke:#F08940;stroke-width:7;stroke-miterlimit:10;}
	.st11{display:inline;fill:none;stroke:#F08940;stroke-width:20;stroke-miterlimit:10;}
	.st12{display:inline;fill:none;stroke:#FFFFFF;stroke-width:19;stroke-miterlimit:10;}
	.st13{display:inline;fill:none;stroke:#F08940;stroke-width:18;stroke-miterlimit:10;}
	.st14{display:inline;fill:none;stroke:#FFFFFF;stroke-width:12;stroke-miterlimit:10;}
</style>
<g id="參考圖" class="st0">
</g>
<g id="orange" class="st0">
	<rect x="34.4" y="34.4" class="st1" width="531.21" height="531.21"/>
</g>
<g id="map">
	<circle class="st2" cx="428.46" cy="191.41" r="15.62"/>
	<circle class="st2" cx="428.46" cy="191.41" r="30.57"/>
	<circle class="st2" cx="307" cy="387" r="15.62"/>
	<circle class="st2" cx="307" cy="387" r="30.57"/>
	<circle class="st2" cx="126" cy="301" r="15.62"/>
	<circle class="st2" cx="126" cy="301" r="30.57"/>
	<line class="st3" x1="369.54" y1="207.03" x2="397.89" y2="193.61"/>
	<polyline class="st3" points="373.25,475.97 244.9,413.08 244.9,145.86 	"/>
	<path class="st4" d="M244.9,412.08"/>
	<line class="st5" x1="126" y1="164.21" x2="126" y2="270.43"/>
	<path class="st6" d="M126.02,434.68"/>
	<path class="st6" d="M126.02,331.46"/>
	<path class="st4" d="M363.53,469.31"/>
	<polyline class="st3" points="448.88,169.3 484.35,150.58 484.35,419.62 368.07,475.97 	"/>
	<polyline class="st3" points="244.9,413.08 119.58,434.68 119.58,331.08 	"/>
	<line class="st5" x1="126.02" y1="331.46" x2="126.02" y2="434.68"/>
	<line class="st4" x1="435.66" y1="219.07" x2="435.66" y2="339.31"/>
	<line class="st4" x1="419.12" y1="219.45" x2="419.12" y2="339.69"/>
	<path class="st5" d="M429.73,281.85"/>
	<polyline class="st3" points="119.76,270.43 119.76,168.21 246.9,146.86 	"/>
	<line class="st7" x1="127.44" y1="167.76" x2="196.55" y2="426.35"/>
	<path class="st2" d="M412.84,220.07"/>
	<polyline class="st2" points="325.38,366.18 370.13,316.62 420.84,220.07 	"/>
	<polyline class="st2" points="277.35,376.96 244.9,353.38 154,313.28 	"/>
	<line class="st7" x1="148.91" y1="266.78" x2="244.9" y2="249.32"/>
	<polyline class="st3" points="243.9,146.8 370.54,208.03 369.54,471.81 	"/>
	<path class="st3" d="M153.67,265.91"/>
	<path class="st7" d="M153.67,256.42c-0.5-9.84-4.77-39.1,16.76-68.99c18.48-25.65,53.99-34.77,69.24-34.77"/>
	<line class="st4" x1="315.53" y1="314.4" x2="315.53" y2="358.43"/>
	<line class="st4" x1="297.05" y1="314.2" x2="297.05" y2="356.23"/>
	<line class="st4" x1="316.43" y1="414.51" x2="316.43" y2="448.54"/>
	<line class="st4" x1="298.43" y1="416.51" x2="298.43" y2="440.54"/>
	<path class="st4" d="M298.26,316.72c-5.02-4.06-16.78-9.72-21.68-25.24c-3.48-11.02-3.15-26.84-1.17-38.68
		c0.06-0.33,0.94-11.61,4.35-11.8c2.19-0.13,2.65,15.05,8.94,29.41c0.79,1.81,2.37,4.03,4.37,4.97c2.98,1.39,5.98-2.92,6.36-5.96
		c0.52-4.16,0.24-13.8,0.6-18.88c0.31-4.43,0.97-15.1,4.17-15.1c3.57,0,4.32,9.97,5.96,19.68c0.82,4.87,0.8,9.22,2.38,15.5
		c0.72,2.86,2.01,3.93,3.58,3.97c3,0.09,5.82-7.72,7.55-14.71c1.11-4.46,1.71-13.89,1.79-15.5c0.15-3.07,2.87-4.37,3.18-4.37
		c1.36-0.01,2.54,2.33,3.58,5.37c4.15,12.19,3.58,26.2,3.58,30.8c0.01,13.3-2.6,19.2-4.58,23.45c-4.16,8.94-12.4,14.43-16.7,17.53"
		/>
	<path class="st4" d="M420.42,336.82c-2.17,1.53-22.41,9.46-22.41,39.68c0,23.06,13.01,39.05,29.68,39.35
		c16.68,0.31,29.14-13.23,29.14-40.62c0-29.89-21.25-37.55-22.6-38.38"/>
</g>
<g id="orange_map" class="st0">
	<circle class="st8" cx="428.03" cy="192.03" r="15.62"/>
	<circle class="st8" cx="428.03" cy="192.03" r="30.57"/>
	<circle class="st8" cx="306.57" cy="387.62" r="15.62"/>
	<circle class="st8" cx="306.57" cy="387.62" r="30.57"/>
	<circle class="st8" cx="125.57" cy="301.62" r="15.62"/>
	<circle class="st8" cx="125.57" cy="301.62" r="30.57"/>
	<line class="st9" x1="369.11" y1="207.65" x2="397.46" y2="194.23"/>
	<polyline class="st9" points="372.82,476.59 244.47,413.7 244.47,146.49 	"/>
	<path class="st10" d="M244.47,412.7"/>
	<line class="st11" x1="125.57" y1="164.83" x2="125.57" y2="271.05"/>
	<path class="st12" d="M125.59,435.3"/>
	<path class="st12" d="M125.59,332.08"/>
	<path class="st10" d="M363.1,469.93"/>
	<polyline class="st9" points="448.45,169.92 483.92,151.2 483.92,420.24 367.64,476.59 	"/>
	<polyline class="st9" points="244.47,413.7 119.15,435.3 119.15,331.7 	"/>
	<line class="st11" x1="125.59" y1="332.08" x2="125.59" y2="435.3"/>
	<line class="st10" x1="435.23" y1="219.69" x2="435.23" y2="339.93"/>
	<line class="st10" x1="418.69" y1="220.07" x2="418.69" y2="340.31"/>
	<path class="st11" d="M429.3,282.47"/>
	<polyline class="st9" points="119.33,271.05 119.33,168.83 246.47,147.49 	"/>
	<line class="st13" x1="127.01" y1="168.38" x2="196.12" y2="426.97"/>
	<path class="st8" d="M412.41,220.69"/>
	<polyline class="st8" points="324.95,366.8 369.7,317.24 420.41,220.69 	"/>
	<polyline class="st8" points="276.92,377.58 244.47,354 153.57,313.9 	"/>
	<line class="st13" x1="148.48" y1="267.4" x2="244.47" y2="249.95"/>
	<polyline class="st9" points="243.47,147.42 370.11,208.65 369.11,472.43 	"/>
	<path class="st14" d="M153.24,266.53"/>
	<path class="st13" d="M153.24,257.04c-0.5-9.84-4.77-39.1,16.76-68.99c18.48-25.65,53.99-34.77,69.24-34.77"/>
	<line class="st10" x1="315.1" y1="315.02" x2="315.1" y2="359.05"/>
	<line class="st10" x1="296.63" y1="314.82" x2="296.63" y2="356.85"/>
	<line class="st10" x1="316" y1="415.13" x2="316" y2="449.16"/>
	<line class="st10" x1="298" y1="417.13" x2="298" y2="441.16"/>
	<path class="st10" d="M297.83,317.34c-5.02-4.06-16.78-9.72-21.68-25.24c-3.48-11.02-3.15-26.84-1.17-38.68
		c0.06-0.33,0.94-11.61,4.35-11.8c2.19-0.13,2.65,15.05,8.94,29.41c0.79,1.81,2.37,4.03,4.37,4.97c2.98,1.39,5.98-2.92,6.36-5.96
		c0.52-4.16,0.24-13.8,0.6-18.88c0.31-4.43,0.97-15.1,4.17-15.1c3.57,0,4.32,9.97,5.96,19.68c0.82,4.87,0.8,9.22,2.38,15.5
		c0.72,2.86,2.01,3.93,3.58,3.97c3,0.09,5.82-7.72,7.55-14.71c1.11-4.46,1.71-13.89,1.79-15.5c0.15-3.07,2.87-4.37,3.18-4.37
		c1.36-0.01,2.54,2.33,3.58,5.37c4.15,12.19,3.58,26.2,3.58,30.8c0.01,13.3-2.6,19.2-4.58,23.45c-4.16,8.94-12.4,14.43-16.7,17.53"
		/>
	<path class="st10" d="M419.99,337.44c-2.17,1.53-22.41,9.46-22.41,39.68c0,23.06,13.01,39.05,29.68,39.35
		c16.68,0.31,29.14-13.23,29.14-40.62c0-29.89-21.25-37.55-22.6-38.38"/>
</g>
</svg>
