<?xml version="1.0" encoding="utf-8"?>
<!-- Generator: Adobe Illustrator 26.0.0, SVG Export Plug-In . SVG Version: 6.00 Build 0)  -->
<svg version="1.1" xmlns="http://www.w3.org/2000/svg" xmlns:xlink="http://www.w3.org/1999/xlink" x="0px" y="0px"
	 viewBox="0 0 600 600" style="enable-background:new 0 0 600 600;" xml:space="preserve">
<style type="text/css">
	.st0{display:none;}
	.st1{display:inline;fill:#F08940;}
	.st2{display:inline;fill:none;stroke:#FFFFFF;stroke-width:8;stroke-miterlimit:10;}
	.st3{display:inline;fill:none;stroke:#FFFFFF;stroke-width:12;stroke-miterlimit:10;}
	.st4{display:inline;fill:none;stroke:#FFFFFF;stroke-width:7;stroke-miterlimit:10;}
	.st5{display:inline;fill:none;stroke:#FFFFFF;stroke-width:20;stroke-miterlimit:10;}
	.st6{display:inline;fill:none;stroke:#FFFFFF;stroke-width:19;stroke-miterlimit:10;}
	.st7{display:inline;fill:none;stroke:#FFFFFF;stroke-width:18;stroke-miterlimit:10;}
	.st8{fill:none;stroke:#F08940;stroke-width:8;stroke-miterlimit:10;}
	.st9{fill:none;stroke:#F08940;stroke-width:12;stroke-miterlimit:10;}
	.st10{fill:none;stroke:#F08940;stroke-width:7;stroke-miterlimit:10;}
	.st11{fill:none;stroke:#F08940;stroke-width:20;stroke-miterlimit:10;}
	.st12{fill:none;stroke:#FFFFFF;stroke-width:19;stroke-miterlimit:10;}
	.st13{fill:none;stroke:#F08940;stroke-width:18;stroke-miterlimit:10;}
	.st14{fill:none;stroke:#FFFFFF;stroke-width:12;stroke-miterlimit:10;}
</style>
<g id="參考圖" class="st0">
</g>
<g id="orange" class="st0">
	<rect x="34.4" y="34.4" class="st1" width="531.21" height="531.21"/>
</g>
<g id="map" class="st0">
	<circle class="st2" cx="428.46" cy="191.41" r="15.62"/>
	<circle class="st2" cx="428.46" cy="191.41" r="30.57"/>
	<circle class="st2" cx="307" cy="387" r="15.62"/>
	<circle class="st2" cx="307" cy="387" r="30.57"/>
	<circle class="st2" cx="126" cy="301" r="15.62"/>
	<circle class="st2" cx="126" cy="301" r="30.57"/>
	<line class="st3" x1="369.54" y1="207.03" x2="397.89" y2="193.61"/>
	<polyline class="st3" points="373.25,475.97 244.9,413.08 244.9,145.86 	"/>
	<path class="st4" d="M244.9,412.08"/>
	<line class="st5" x1="126" y1="164.21" x2="126" y2="270.43"/>
	<path class="st6" d="M126.02,434.68"/>
	<path class="st6" d="M126.02,331.46"/>
	<path class="st4" d="M363.53,469.31"/>
	<polyline class="st3" points="448.88,169.3 484.35,150.58 484.35,419.62 368.07,475.97 	"/>
	<polyline class="st3" points="244.9,413.08 119.58,434.68 119.58,331.08 	"/>
	<line class="st5" x1="126.02" y1="331.46" x2="126.02" y2="434.68"/>
	<line class="st4" x1="435.66" y1="219.07" x2="435.66" y2="339.31"/>
	<line class="st4" x1="419.12" y1="219.45" x2="419.12" y2="339.69"/>
	<path class="st5" d="M429.73,281.85"/>
	<polyline class="st3" points="119.76,270.43 119.76,168.21 246.9,146.86 	"/>
	<line class="st7" x1="127.44" y1="167.76" x2="196.55" y2="426.35"/>
	<path class="st2" d="M412.84,220.07"/>
	<polyline class="st2" points="325.38,366.18 370.13,316.62 420.84,220.07 	"/>
	<polyline class="st2" points="277.35,376.96 244.9,353.38 154,313.28 	"/>
	<line class="st7" x1="148.91" y1="266.78" x2="244.9" y2="249.32"/>
	<polyline class="st3" points="243.9,146.8 370.54,208.03 369.54,471.81 	"/>
	<path class="st3" d="M153.67,265.91"/>
	<path class="st7" d="M153.67,256.42c-0.5-9.84-4.77-39.1,16.76-68.99c18.48-25.65,53.99-34.77,69.24-34.77"/>
	<line class="st4" x1="315.53" y1="314.4" x2="315.53" y2="358.43"/>
	<line class="st4" x1="297.05" y1="314.2" x2="297.05" y2="356.23"/>
	<line class="st4" x1="316.43" y1="414.51" x2="316.43" y2="448.54"/>
	<line class="st4" x1="298.43" y1="416.51" x2="298.43" y2="440.54"/>
	<path class="st4" d="M298.26,316.72c-5.02-4.06-16.78-9.72-21.68-25.24c-3.48-11.02-3.15-26.84-1.17-38.68
		c0.06-0.33,0.94-11.61,4.35-11.8c2.19-0.13,2.65,15.05,8.94,29.41c0.79,1.81,2.37,4.03,4.37,4.97c2.98,1.39,5.98-2.92,6.36-5.96
		c0.52-4.16,0.24-13.8,0.6-18.88c0.31-4.43,0.97-15.1,4.17-15.1c3.57,0,4.32,9.97,5.96,19.68c0.82,4.87,0.8,9.22,2.38,15.5
		c0.72,2.86,2.01,3.93,3.58,3.97c3,0.09,5.82-7.72,7.55-14.71c1.11-4.46,1.71-13.89,1.79-15.5c0.15-3.07,2.87-4.37,3.18-4.37
		c1.36-0.01,2.54,2.33,3.58,5.37c4.15,12.19,3.58,26.2,3.58,30.8c0.01,13.3-2.6,19.2-4.58,23.45c-4.16,8.94-12.4,14.43-16.7,17.53"
		/>
	<path class="st4" d="M420.42,336.82c-2.17,1.53-22.41,9.46-22.41,39.68c0,23.06,13.01,39.05,29.68,39.35
		c16.68,0.31,29.14-13.23,29.14-40.62c0-29.89-21.25-37.55-22.6-38.38"/>
</g>
<g id="orange_map">
	<circle class="st8" cx="487.54" cy="152.93" r="21.52"/>
	<circle class="st8" cx="487.54" cy="152.93" r="42.12"/>
	<circle class="st8" cx="320.17" cy="422.43" r="21.52"/>
	<circle class="st8" cx="320.17" cy="422.43" r="42.12"/>
	<circle class="st8" cx="70.77" cy="303.93" r="21.52"/>
	<circle class="st8" cx="70.77" cy="303.93" r="42.12"/>
	<line class="st9" x1="406.35" y1="174.45" x2="445.41" y2="155.96"/>
	<polyline class="st9" points="411.46,545.03 234.6,458.36 234.6,90.17 	"/>
	<path class="st10" d="M234.6,456.99"/>
	<line class="st11" x1="70.77" y1="115.44" x2="70.77" y2="261.81"/>
	<path class="st12" d="M70.79,488.13"/>
	<path class="st12" d="M70.79,345.9"/>
	<path class="st10" d="M398.07,535.85"/>
	<polyline class="st9" points="515.67,122.45 564.55,96.67 564.55,467.38 404.32,545.03 	"/>
	<polyline class="st9" points="234.6,458.36 61.92,488.13 61.92,345.38 	"/>
	<line class="st11" x1="70.79" y1="345.9" x2="70.79" y2="488.13"/>
	<line class="st10" x1="497.45" y1="191.04" x2="497.45" y2="356.72"/>
	<line class="st10" x1="474.67" y1="191.57" x2="474.67" y2="357.24"/>
	<path class="st11" d="M489.28,277.55"/>
	<polyline class="st9" points="62.17,261.81 62.17,120.95 237.36,91.55 	"/>
	<line class="st13" x1="72.76" y1="120.33" x2="167.99" y2="476.65"/>
	<path class="st8" d="M466.02,192.42"/>
	<polyline class="st8" points="345.5,393.74 407.16,325.45 477.04,192.42 	"/>
	<polyline class="st8" points="279.32,408.6 234.6,376.1 109.35,320.85 	"/>
	<line class="st13" x1="102.33" y1="256.78" x2="234.6" y2="232.73"/>
	<polyline class="st9" points="233.22,91.46 407.72,175.83 406.35,539.29 	"/>
	<path class="st14" d="M108.9,255.58"/>
	<path class="st13" d="M108.9,242.51c-0.69-13.56-6.57-53.88,23.1-95.07c25.46-35.35,74.4-47.92,95.4-47.92"/>
	<line class="st10" x1="331.93" y1="322.39" x2="331.93" y2="383.06"/>
	<line class="st10" x1="306.47" y1="322.12" x2="306.47" y2="380.04"/>
	<line class="st10" x1="333.16" y1="460.34" x2="333.16" y2="507.23"/>
	<line class="st10" x1="308.36" y1="463.09" x2="308.36" y2="496.21"/>
	<path class="st10" d="M308.13,325.59c-6.92-5.6-23.13-13.39-29.88-34.78c-4.79-15.19-4.34-36.98-1.61-53.29
		c0.08-0.46,1.29-15.99,5.99-16.26c3.01-0.18,3.65,20.74,12.32,40.53c1.09,2.49,3.27,5.56,6.02,6.85c4.1,1.92,8.24-4.02,8.76-8.22
		c0.72-5.74,0.34-19.01,0.82-26.02c0.42-6.1,1.34-20.81,5.75-20.81c4.92,0,5.96,13.74,8.22,27.11c1.14,6.72,1.1,12.71,3.29,21.36
		c0.99,3.94,2.77,5.41,4.93,5.48c4.13,0.12,8.01-10.64,10.41-20.26c1.53-6.15,2.36-19.14,2.46-21.36c0.21-4.23,3.96-6.02,4.38-6.02
		c1.87-0.01,3.5,3.2,4.93,7.39c5.72,16.79,4.93,36.1,4.94,42.45c0.01,18.32-3.58,26.46-6.31,32.31
		c-5.73,12.32-17.08,19.88-23.01,24.16"/>
	<path class="st10" d="M476.45,353.29c-2.99,2.1-30.87,13.03-30.87,54.67c0,31.77,17.93,53.8,40.89,54.23
		c22.99,0.42,40.15-18.23,40.15-55.98c0-41.19-29.28-51.74-31.13-52.88"/>
	<g>
	</g>
	<g>
	</g>
	<g>
	</g>
	<g>
	</g>
	<g>
	</g>
	<g>
	</g>
</g>
</svg>
